<svg xmlns="http://www.w3.org/2000/svg" width="21" height="21.001" viewBox="0 0 21 21.001">
  <path id="remark-3" d="M213.1,206.47a1.188,1.188,0,1,1-1.455.84,1.187,1.187,0,0,1,1.455-.84Zm-2.607,5.238a1,1,0,0,1,.707-1.225l.866-.232a.993.993,0,0,1,.49-.052l.017,0a.95.95,0,0,1,.1.017c.021.005.038.015.058.021l.044.017a.9.9,0,0,1,.125.058.754.754,0,0,1,.064.04,1.014,1.014,0,0,1,.085.061.993.993,0,0,1,.086.082c.014.014.029.028.042.043a1.184,1.184,0,0,1,.093.131c0,.006.008.012.01.017a.989.989,0,0,1,.077.168h0c.008.025.02.047.027.072a1,1,0,0,1-.035.616l-.735,2.745-.277,1.036a1,1,0,0,1-.113,1.891l-.965.259a1,1,0,0,1-.994-.295c-.013-.014-.028-.027-.04-.042s-.027-.038-.041-.057a.99.99,0,0,1-.16-.845l1.037-3.874a1,1,0,0,1-.573-.656h0Zm11.618,2.972a10.518,10.518,0,0,1-1.16,2.71h0a1,1,0,1,1-1.7-1.036l-.005,0a8.523,8.523,0,1,0-2.914,2.9,1,1,0,1,1,1.085,1.671l.006.01a10.49,10.49,0,1,1,4.693-6.248h0ZM222.111,214.68Z" transform="translate(-201.471 -201.462)" fill="#f5ff00"/>
</svg>
